<?xml version="1.0" encoding="UTF-8"?>
<svg width="41.474px" height="6.7075px" viewBox="0 0 41.474 6.7075" version="1.1" xmlns="http://www.w3.org/2000/svg" xmlns:xlink="http://www.w3.org/1999/xlink">
    <title>Logo/LeMatin/White</title>
    <defs>
        <polygon id="path-1" points="0 0 2.3584 0 2.3584 6.639 0 6.639"></polygon>
        <polygon id="path-3" points="3.55271368e-15 0 1.78513706 0 1.78513706 1.6418 3.55271368e-15 1.6418"></polygon>
        <polygon id="path-5" points="7.10542736e-15 0 4.6262 0 4.6262 6.549 7.10542736e-15 6.549"></polygon>
        <polygon id="path-7" points="4.4408921e-16 0 4.24541369 0 4.24541369 4.6989 4.4408921e-16 4.6989"></polygon>
    </defs>
    <g id="Logo/LeMatin/White" stroke="none" stroke-width="1" fill="none" fill-rule="evenodd">
        <g id="Group-3" transform="translate(0.000000, 0.068500)">
            <mask id="mask-2" fill="white">
                <use xlink:href="#path-1"></use>
            </mask>
            <g id="Clip-2"></g>
            <path d="M1.7164,4.902 L2.2054,0 L0.5134,0 L0.0364,4.77 C0.0054,5.065 -0.0076,5.342 0.0044,5.596 C0.0434,6.285 0.4144,6.639 1.3164,6.639 C1.7294,6.639 2.0694,6.548 2.2384,6.48 L2.3584,5.224 C2.2954,5.233 2.1554,5.26 1.9974,5.26 C1.7974,5.26 1.6884,5.16 1.7164,4.902" id="Fill-1" fill="#FFFFFF" mask="url(#mask-2)"></path>
        </g>
        <path d="M22.3719,0.839 L20.8439,0.839 L20.6379,2.1 L20.1079,2.1 L19.9839,3.374 L20.4609,3.374 C20.3819,4.181 20.2459,5.102 20.3049,5.75 C20.3829,6.408 20.8329,6.707 21.6449,6.707 C22.1619,6.707 22.5529,6.63 22.7269,6.58 L22.7749,5.338 C22.6939,5.347 22.4779,5.383 22.2959,5.383 C22.0649,5.383 21.9639,5.27 21.9939,4.957 L22.1519,3.374 L22.9049,3.374 L23.0329,2.1 L22.2479,2.1 C22.2909,1.678 22.3339,1.261 22.3719,0.839" id="Fill-4" fill="#FFFFFF"></path>
        <g id="Group-8" transform="translate(30.817021, 5.065700)">
            <mask id="mask-4" fill="white">
                <use xlink:href="#path-3"></use>
            </mask>
            <g id="Clip-7"></g>
            <path d="M0.97007941,0 C0.30807941,0 -0.0299205895,0.322 0.0020794105,0.975 C0.0240794105,1.429 0.30707941,1.642 0.81007941,1.642 C1.47307941,1.642 1.81507941,1.32 1.78307941,0.662 C1.76007941,0.209 1.47807941,0 0.97007941,0" id="Fill-6" fill="#FFFFFF" mask="url(#mask-4)"></path>
        </g>
        <path d="M33.1167,3.6961 C33.0867,3.8321 33.0667,3.9731 33.0517,4.1221 L33.0027,4.5981 C32.9867,4.7441 32.9807,4.8891 32.9827,5.0251 C32.9777,6.1311 33.6327,6.7071 34.8427,6.7071 C35.3417,6.7071 35.8287,6.6351 36.0927,6.5711 L36.1237,5.2741 C35.9667,5.3111 35.6527,5.3741 35.3267,5.3741 C34.8637,5.3741 34.6097,5.0971 34.6587,4.6211 L34.7147,4.1001 C34.7597,3.6321 35.0677,3.3421 35.5027,3.3421 C35.8427,3.3421 36.1837,3.4471 36.2527,3.4651 L36.5427,2.1631 C36.3817,2.1221 35.8277,2.0091 35.2967,2.0091 C34.1127,2.0091 33.3307,2.6031 33.1167,3.6961" id="Fill-9" fill="#FFFFFF"></path>
        <path d="M14.2163,2.0091 C13.7033,2.0091 13.0423,2.2721 12.5213,2.5711 C12.4123,2.1631 12.0713,2.0271 11.6133,2.0271 C11.0643,2.0271 10.5073,2.2541 10.0043,2.5351 L10.1113,2.1001 L8.6423,2.1001 L6.8103,6.6171 L8.5023,6.6171 L9.6833,3.7001 C9.9183,3.5641 10.1443,3.4781 10.2983,3.4781 C10.5383,3.4781 10.5913,3.6281 10.4883,3.8861 L9.3823,6.6171 L11.0783,6.6171 L12.2563,3.6961 C12.4863,3.5601 12.7063,3.4781 12.8563,3.4781 C13.0963,3.4781 13.1583,3.6281 13.0553,3.8861 L11.9443,6.6171 L13.6363,6.6171 L14.9603,3.3561 C15.3153,2.4811 15.0463,2.0091 14.2163,2.0091" id="Fill-11" fill="#FFFFFF"></path>
        <polygon id="Fill-13" fill="#FFFFFF" points="23.3735 6.6168 25.0655 6.6168 25.5185 2.0998 23.8265 2.0998"></polygon>
        <path d="M29.3236,2.0091 C28.7656,2.0091 28.2206,2.2721 27.8206,2.5311 L27.7956,2.1001 L26.3256,2.1001 L25.8726,6.6171 L27.5636,6.6171 L27.8596,3.6911 C28.0436,3.5601 28.2486,3.4781 28.4166,3.4781 C28.6616,3.4781 28.7686,3.6281 28.7446,3.8861 L28.4666,6.6171 L30.1576,6.6171 L30.4876,3.3561 C30.5756,2.4811 30.1626,2.0091 29.3236,2.0091" id="Fill-15" fill="#FFFFFF"></path>
        <g id="Group-19" transform="translate(36.847800, 0.068000)">
            <mask id="mask-6" fill="white">
                <use xlink:href="#path-5"></use>
            </mask>
            <g id="Clip-18"></g>
            <path d="M3.451,1.941 C2.948,1.941 2.459,2.154 2.072,2.399 L2.312,0 L0.657,0 L7.10542736e-15,6.549 L1.691,6.549 L1.987,3.624 C2.171,3.492 2.376,3.41 2.544,3.41 C2.789,3.41 2.896,3.56 2.872,3.819 L2.594,6.549 L4.285,6.549 L4.615,3.288 C4.703,2.413 4.29,1.941 3.451,1.941" id="Fill-17" fill="#FFFFFF" mask="url(#mask-6)"></path>
        </g>
        <path d="M17.6283,5.161 C17.4833,5.265 17.3063,5.351 17.1163,5.351 C16.8213,5.351 16.7023,5.138 16.7353,4.803 L16.8243,3.932 C16.8583,3.61 17.0453,3.361 17.3813,3.361 C17.5393,3.361 17.6863,3.388 17.8013,3.424 L17.6283,5.161 Z M15.1233,4.014 L15.0193,5.048 C14.9163,6.082 15.4593,6.707 16.3353,6.707 C16.8423,6.707 17.3023,6.467 17.6753,6.213 L17.7043,6.617 L19.1743,6.617 L19.6083,2.277 C19.1293,2.127 18.3753,2.009 17.5093,2.009 C16.0943,2.009 15.2543,2.726 15.1233,4.014 L15.1233,4.014 Z" id="Fill-20" fill="#FFFFFF"></path>
        <g id="Group-24" transform="translate(2.756446, 2.008600)">
            <mask id="mask-8" fill="white">
                <use xlink:href="#path-7"></use>
            </mask>
            <g id="Clip-23"></g>
            <path d="M1.74145361,1.76 C1.77845361,1.411 1.95045361,1.207 2.25845361,1.207 C2.51645361,1.207 2.64645361,1.352 2.65645361,1.556 C2.67345361,1.901 2.46145361,2.019 2.09845361,2.019 C1.97645361,2.019 1.83445361,2 1.72045361,1.973 L1.74145361,1.76 Z M2.32445361,2.826 C3.25845361,2.826 4.30845361,2.681 4.24245361,1.338 C4.20345361,0.558 3.58645361,0 2.44445361,0 C1.06945361,0 0.220453611,0.712 0.0934536107,2 L0.0134536107,2.767 C-0.114546389,4.041 0.679453611,4.699 2.02645361,4.699 C2.95145361,4.699 3.55245361,4.558 3.80345361,4.49 L3.79345361,3.279 C3.54645361,3.325 3.04245361,3.411 2.48045361,3.411 C1.84945361,3.411 1.59545361,3.225 1.63145361,2.849 L1.64145361,2.772 C1.82945361,2.803 2.07945361,2.826 2.32445361,2.826 L2.32445361,2.826 Z" id="Fill-22" fill="#FFFFFF" mask="url(#mask-8)"></path>
        </g>
        <path d="M24.88,0 C24.218,0 23.88,0.322 23.912,0.975 C23.935,1.433 24.217,1.642 24.716,1.642 C25.382,1.642 25.725,1.32 25.693,0.667 C25.671,0.213 25.388,0 24.88,0" id="Fill-25" fill="#FFFFFF"></path>
    </g>
</svg>